<svg width="109" height="108" viewBox="0 0 109 108" fill="none" xmlns="http://www.w3.org/2000/svg">
<path d="M22.243 5.3905V21.5621M22.243 37.7336V21.5621M22.243 21.5621H38.4146M22.243 21.5621H6.07147" stroke="#4A4AFA" stroke-width="10.781" stroke-linecap="round" stroke-linejoin="round"/>
<path fill-rule="evenodd" clip-rule="evenodd" d="M54.5862 21.5621H81.5388C82.9684 21.5621 84.3395 22.13 85.3505 23.1409C86.3614 24.1518 86.9293 25.5229 86.9293 26.9526C86.9293 28.3822 86.3614 29.7533 85.3505 30.7643C84.3395 31.7752 82.9684 32.3431 81.5388 32.3431H52.748C51.3391 36.3199 49.1654 39.9824 46.3495 43.1241H81.5388C82.9684 43.1241 84.3395 43.6921 85.3505 44.703C86.3614 45.7139 86.9293 47.085 86.9293 48.5147C86.9293 49.9443 86.3614 51.3154 85.3505 52.3263C84.3395 53.3372 82.9684 53.9052 81.5388 53.9052H27.6336C27.1096 53.9054 26.5885 53.8292 26.0865 53.6788C21.5256 54.2318 16.8991 53.8032 12.5173 52.4217C8.1356 51.0401 4.09994 48.7376 0.68103 45.6685V91.6388C0.68103 95.9278 2.38481 100.041 5.41757 103.074C8.45032 106.107 12.5636 107.81 16.8526 107.81H65.3672V80.8578C65.3672 76.5688 67.071 72.4555 70.1038 69.4227C73.1365 66.39 77.2498 64.6862 81.5388 64.6862H108.491V16.1716C108.491 11.8826 106.788 7.76929 103.755 4.73654C100.722 1.70378 96.6088 0 92.3198 0H46.3495C51.6633 5.92378 54.5972 13.6042 54.5862 21.5621ZM76.1483 107.18C78.7821 106.423 81.1804 105.01 83.1182 103.072L103.753 82.4372C105.691 80.4994 107.104 78.1011 107.861 75.4672H81.5388C80.1091 75.4672 78.738 76.0352 77.7271 77.0461C76.7162 78.057 76.1483 79.4281 76.1483 80.8578V107.18ZM22.2431 70.0767C22.2431 68.6471 22.811 67.276 23.8219 66.2651C24.8329 65.2541 26.204 64.6862 27.6336 64.6862H49.1957C50.6253 64.6862 51.9964 65.2541 53.0074 66.2651C54.0183 67.276 54.5862 68.6471 54.5862 70.0767C54.5862 71.5064 54.0183 72.8775 53.0074 73.8884C51.9964 74.8993 50.6253 75.4672 49.1957 75.4672H27.6336C26.204 75.4672 24.8329 74.8993 23.8219 73.8884C22.811 72.8775 22.2431 71.5064 22.2431 70.0767Z" fill="#4A4AFA"/>
</svg>
